<svg xmlns="http://www.w3.org/2000/svg" version="1.1" xmlns:xlink="http://www.w3.org/1999/xlink" viewBox="0 0 200 200"><rect width="200" height="200" fill="url('#gradient')"></rect><defs><linearGradient id="gradient" gradientTransform="rotate(86 0.5 0.5)"><stop offset="0%" stop-color="#2b3eee"></stop><stop offset="100%" stop-color="#03268c"></stop></linearGradient></defs><g><g fill="#13bfec" transform="matrix(0.6807805214988776,0,0,0.6807805214988776,22.268790331386654,104.8413207513766)" stroke="#0e5278" stroke-width="0.2"><path d="M6.85 0L1.07 0L1.07-14.22L6.18-14.22Q8.93-14.22 10.36-13.21Q11.79-12.21 11.79-10.29L11.79-10.29Q11.79-9.19 11.28-8.41Q10.77-7.63 9.79-7.26L9.79-7.26Q10.90-6.96 11.49-6.16Q12.09-5.36 12.09-4.21L12.09-4.21Q12.09-2.12 10.77-1.07Q9.44-0.02 6.85 0L6.85 0ZM6.90-6.04L4.50-6.04L4.50-2.64L6.75-2.64Q7.68-2.64 8.17-3.06Q8.67-3.49 8.67-4.26L8.67-4.26Q8.67-6.04 6.90-6.04L6.90-6.04ZM4.50-11.57L4.50-8.29L6.29-8.29Q7.41-8.30 7.89-8.70Q8.37-9.10 8.37-9.88L8.37-9.88Q8.37-10.78 7.85-11.18Q7.33-11.57 6.18-11.57L6.18-11.57L4.50-11.57ZM17.63-14.22L17.63 0L14.21 0L14.21-14.22L17.63-14.22ZM22.71-14.22L25.53-3.87L28.36-14.22L32.19-14.22L27.40 0L23.65 0L18.91-14.22L22.71-14.22ZM41.40 0L40.57-2.66L35.87-2.66L35.05 0L31.39 0L36.60-14.22L39.82-14.22L45.08 0L41.40 0ZM38.21-10.23L36.69-5.30L39.75-5.30L38.21-10.23ZM53.45-3.78L53.45-3.78Q53.45-4.53 52.92-4.95Q52.38-5.37 51.04-5.82Q49.71-6.27 48.86-6.69L48.86-6.69Q46.09-8.05 46.09-10.42L46.09-10.42Q46.09-11.60 46.78-12.50Q47.47-13.41 48.73-13.91Q49.99-14.41 51.56-14.41L51.56-14.41Q53.10-14.41 54.31-13.87Q55.53-13.32 56.20-12.31Q56.88-11.30 56.88-10L56.88-10L53.46-10Q53.46-10.87 52.92-11.35Q52.39-11.83 51.48-11.83L51.48-11.83Q50.57-11.83 50.03-11.42Q49.50-11.02 49.50-10.39L49.50-10.39Q49.50-9.84 50.09-9.40Q50.67-8.96 52.15-8.48Q53.62-8.01 54.57-7.46L54.57-7.46Q56.88-6.13 56.88-3.80L56.88-3.80Q56.88-1.93 55.47-0.87Q54.06 0.20 51.61 0.20L51.61 0.20Q49.88 0.20 48.48-0.42Q47.08-1.04 46.37-2.12Q45.66-3.20 45.66-4.61L45.66-4.61L49.10-4.61Q49.10-3.47 49.69-2.92Q50.28-2.38 51.61-2.38L51.61-2.38Q52.46-2.38 52.95-2.75Q53.45-3.12 53.45-3.78ZM70.52-14.22L70.52 0L67.11 0L67.11-5.94L62.06-5.94L62.06 0L58.63 0L58.63-14.22L62.06-14.22L62.06-8.57L67.11-8.57L67.11-14.22L70.52-14.22ZM86.62-8.30L86.62-5.66L81.09-5.66L81.09 0L77.67 0L77.67-14.22L87.18-14.22L87.18-11.57L81.09-11.57L81.09-8.30L86.62-8.30ZM100.64-7.47L100.64-6.82Q100.64-4.74 99.87-3.13Q99.10-1.53 97.68-0.67Q96.26 0.20 94.44 0.20Q92.63 0.20 91.22-0.64Q89.81-1.47 89.03-3.03Q88.24-4.58 88.20-6.59L88.20-6.59L88.20-7.39Q88.20-9.48 88.97-11.08Q89.74-12.68 91.17-13.54Q92.60-14.41 94.42-14.41L94.42-14.41Q96.23-14.41 97.65-13.55Q99.06-12.70 99.85-11.11Q100.63-9.52 100.64-7.47L100.64-7.47ZM97.16-6.76L97.16-7.41Q97.16-9.53 96.45-10.63Q95.74-11.73 94.42-11.73L94.42-11.73Q91.85-11.73 91.70-7.86L91.70-7.86L91.69-6.82Q91.69-4.73 92.38-3.60Q93.08-2.48 94.44-2.48L94.44-2.48Q95.74-2.48 96.45-3.58Q97.15-4.69 97.16-6.76L97.16-6.76ZM114.45-7.47L114.45-6.82Q114.45-4.74 113.68-3.13Q112.91-1.53 111.49-0.67Q110.07 0.20 108.25 0.20Q106.44 0.20 105.03-0.64Q103.62-1.47 102.84-3.03Q102.05-4.58 102.01-6.59L102.01-6.59L102.01-7.39Q102.01-9.48 102.78-11.08Q103.54-12.68 104.98-13.54Q106.41-14.41 108.23-14.41L108.23-14.41Q110.04-14.41 111.46-13.55Q112.87-12.70 113.66-11.11Q114.44-9.52 114.45-7.47L114.45-7.47ZM110.97-6.76L110.97-7.41Q110.97-9.53 110.26-10.63Q109.55-11.73 108.23-11.73L108.23-11.73Q105.65-11.73 105.51-7.86L105.51-7.86L105.50-6.82Q105.50-4.73 106.19-3.60Q106.88-2.48 108.25-2.48L108.25-2.48Q109.55-2.48 110.25-3.58Q110.96-4.69 110.97-6.76L110.97-6.76ZM120.90 0L116.22 0L116.22-14.22L120.80-14.22Q122.69-14.22 124.19-13.36Q125.69-12.51 126.54-10.95Q127.38-9.39 127.39-7.46L127.39-7.46L127.39-6.81Q127.39-4.85 126.57-3.31Q125.74-1.76 124.24-0.88Q122.74-0.01 120.90 0L120.90 0ZM120.80-11.57L119.65-11.57L119.65-2.64L120.84-2.64Q122.31-2.64 123.11-3.69Q123.90-4.74 123.90-6.81L123.90-6.81L123.90-7.42Q123.90-9.48 123.11-10.53Q122.31-11.57 120.80-11.57L120.80-11.57ZM141.86-14.22L145.28-14.22L145.28-4.91Q145.28-3.33 144.61-2.17Q143.94-1.02 142.68-0.41Q141.42 0.20 139.70 0.20L139.70 0.20Q137.10 0.20 135.61-1.15Q134.11-2.50 134.08-4.84L134.08-4.84L134.08-14.22L137.53-14.22L137.53-4.78Q137.59-2.44 139.70-2.44L139.70-2.44Q140.76-2.44 141.31-3.03Q141.86-3.61 141.86-4.93L141.86-4.93L141.86-14.22ZM159.30-14.22L159.30 0L155.89 0L150.85-8.85L150.85 0L147.42 0L147.42-14.22L150.85-14.22L155.88-5.37L155.88-14.22L159.30-14.22ZM165.12-14.22L165.12 0L161.70 0L161.70-14.22L165.12-14.22ZM170.20-14.22L173.02-3.87L175.85-14.22L179.68-14.22L174.89 0L171.14 0L166.40-14.22L170.20-14.22ZM189.53-8.57L189.53-6.03L184.14-6.03L184.14-2.64L190.51-2.64L190.51 0L180.71 0L180.71-14.22L190.53-14.22L190.53-11.57L184.14-11.57L184.14-8.57L189.53-8.57ZM199.70 0L197.19-5.02L195.33-5.02L195.33 0L191.90 0L191.90-14.22L197.50-14.22Q200.03-14.22 201.46-13.10Q202.88-11.97 202.88-9.92L202.88-9.92Q202.88-8.44 202.28-7.46Q201.68-6.48 200.40-5.88L200.40-5.88L203.37-0.15L203.37 0L199.70 0ZM195.33-11.57L195.33-7.67L197.50-7.67Q198.48-7.67 198.97-8.18Q199.46-8.69 199.46-9.61Q199.46-10.53 198.96-11.05Q198.47-11.57 197.50-11.57L197.50-11.57L195.33-11.57ZM212.29-3.78L212.29-3.78Q212.29-4.53 211.75-4.95Q211.22-5.37 209.88-5.82Q208.54-6.27 207.70-6.69L207.70-6.69Q204.93-8.05 204.93-10.42L204.93-10.42Q204.93-11.60 205.62-12.50Q206.31-13.41 207.57-13.91Q208.83-14.41 210.40-14.41L210.40-14.41Q211.93-14.41 213.15-13.87Q214.37-13.32 215.04-12.31Q215.71-11.30 215.71-10L215.71-10L212.29-10Q212.29-10.87 211.76-11.35Q211.23-11.83 210.32-11.83L210.32-11.83Q209.40-11.83 208.87-11.42Q208.34-11.02 208.34-10.39L208.34-10.39Q208.34-9.84 208.93-9.40Q209.51-8.96 210.99-8.48Q212.46-8.01 213.41-7.46L213.41-7.46Q215.71-6.13 215.71-3.80L215.71-3.80Q215.71-1.93 214.31-0.87Q212.90 0.20 210.45 0.20L210.45 0.20Q208.72 0.20 207.32-0.42Q205.92-1.04 205.21-2.12Q204.50-3.20 204.50-4.61L204.50-4.61L207.94-4.61Q207.94-3.47 208.53-2.92Q209.12-2.38 210.45-2.38L210.45-2.38Q211.30-2.38 211.79-2.75Q212.29-3.12 212.29-3.78ZM226.29-8.57L226.29-6.03L220.90-6.03L220.90-2.64L227.27-2.64L227.27 0L217.47 0L217.47-14.22L227.29-14.22L227.29-11.57L220.90-11.57L220.90-8.57L226.29-8.57Z"></path></g></g></svg>